[img]http://img543.imageshack.us/img543/7407/rickrossastonmartin.png[/img]

[img]http://img689.imageshack.us/img689/5558/rickrossastonmartin2.png[/img]

[code]General
Complete name                    : Rick Ross ft Chrisette Michele and Drake - Aston Martin Music [KingPinVideos].mpg
Format                           : MPEG-PS
File size                        : 127 MiB
Duration                         : 6mn 13s
Overall bit rate                 : 2 857 Kbps
Writing library                  : encoded by TMPGEnc 4.0 XPress Version. 4.7.4.299

Video
ID                               : 224 (0xE0)
Format                           : MPEG Video
Format version                   : Version 1
Format settings, BVOP            : Yes
Format settings, Matrix          : Default
Duration                         : 6mn 13s
Bit rate mode                    : Constant
Bit rate                         : 2 615 Kbps
Nominal bit rate                 : 2 700 Kbps
Width                            : 384 pixels
Height                           : 208 pixels
Display aspect ratio             : 16:9
Frame rate                       : 29.970 fps
Resolution                       : 8 bits
Scan type                        : Progressive
Bits/(Pixel*Frame)               : 1.093
Stream size                      : 116 MiB (92%)
Writing library                  : TMPGEnc XPress 4.7.4.299

Audio
ID                               : 192 (0xC0)
Format                           : MPEG Audio
Format version                   : Version 1
Format profile                   : Layer 2
Duration                         : 6mn 13s
Bit rate mode                    : Constant
Bit rate                         : 128 Kbps
Channel(s)                       : 2 channels
Sampling rate                    : 48.0 KHz
Stream size                      : 5.70 MiB (4%)[/code]